<svg width="22" height="22" viewBox="0 0 22 22" fill="none" xmlns="http://www.w3.org/2000/svg">
<path d="M2.01465 4.55325H6.25885V3.90856C6.25885 3.1027 6.90354 2.45801 7.7094 2.45801H14.2906C15.0965 2.45801 15.7411 3.1027 15.7411 3.90856V4.55325H19.9853C21.0867 4.55325 22 5.46655 22 6.5679V17.5276C22 18.6289 21.0867 19.5423 19.9853 19.5423H2.01465C0.913309 19.5423 0 18.6289 0 17.5276V6.5679C0 5.43969 0.913309 4.55325 2.01465 4.55325Z" fill="#5ED5A8" fill-opacity="0.1"/>
<path d="M14.0484 9.0123C13.2694 8.2333 12.195 7.77664 11.013 7.77664C9.83111 7.77664 8.75663 8.26016 7.97763 9.03916C7.19863 9.81816 6.71511 10.8926 6.71511 12.0746C6.71511 13.2565 7.19863 14.331 7.97763 15.11C8.75663 15.889 9.83111 16.3725 11.013 16.3725C12.195 16.3725 13.2694 15.889 14.0484 15.11C14.8274 14.331 15.311 13.2565 15.311 12.0746C15.2841 10.8658 14.8006 9.79129 14.0484 9.0123ZM11.013 6.64844C12.4904 6.64844 13.8604 7.2394 14.8274 8.2333C15.7945 9.20033 16.4123 10.5703 16.4123 12.0477C16.4123 13.5251 15.8213 14.8951 14.8274 15.8621C13.8604 16.8291 12.4904 17.447 11.013 17.447C9.53562 17.447 8.16566 16.856 7.19863 15.8621C6.2316 14.8951 5.61377 13.5251 5.61377 12.0477C5.61377 10.5703 6.20473 9.20033 7.19863 8.2333C8.16566 7.2394 9.53562 6.64844 11.013 6.64844Z" fill="#5ED5A8"/>
<path opacity="0.1" d="M18.8572 8.74369C19.4506 8.74369 19.9317 8.26263 19.9317 7.66921C19.9317 7.07579 19.4506 6.59473 18.8572 6.59473C18.2638 6.59473 17.7827 7.07579 17.7827 7.66921C17.7827 8.26263 18.2638 8.74369 18.8572 8.74369Z" fill="#5ED5A8" fill-opacity="0.1"/>
<path opacity="0.1" d="M11.0134 15.0024C12.6453 15.0024 13.9682 13.6795 13.9682 12.0476C13.9682 10.4157 12.6453 9.09277 11.0134 9.09277C9.38151 9.09277 8.05859 10.4157 8.05859 12.0476C8.05859 13.6795 9.38151 15.0024 11.0134 15.0024Z" fill="#5ED5A8" fill-opacity="0.1"/>
</svg>
