<svg width="22" height="22" viewBox="0 0 22 22" fill="none" xmlns="http://www.w3.org/2000/svg">
<path d="M8.88545 13.5385C8.61426 13.5385 8.34772 13.4086 8.18441 13.1674L0.146017 1.32132C-0.116289 0.934631 -0.0155974 0.408325 0.371092 0.146017C0.757358 -0.11629 1.28408 -0.0155975 1.54639 0.371094L9.58479 12.2172C9.84709 12.6039 9.7464 13.1302 9.35971 13.3925C9.21417 13.4915 9.04918 13.5385 8.88545 13.5385Z" fill="#B4B9C7"/>
<path d="M13.1144 13.5385C12.9507 13.5385 12.7857 13.4915 12.6401 13.3925C12.2534 13.1302 12.1528 12.6039 12.4151 12.2172L20.4535 0.371094C20.7158 -0.0155975 21.2425 -0.11629 21.6288 0.146017C22.0154 0.408325 22.1161 0.934631 21.8538 1.32132L13.8154 13.1674C13.6521 13.4086 13.3856 13.5385 13.1144 13.5385Z" fill="#B4B9C7"/>
<path d="M8.88472 21.9995C8.41765 21.9995 8.03857 21.6204 8.03857 21.1534V12.6919C8.03857 12.2248 8.41765 11.8457 8.88472 11.8457C9.35179 11.8457 9.73087 12.2248 9.73087 12.6919V21.1534C9.73087 21.6204 9.35179 21.9995 8.88472 21.9995Z" fill="#B4B9C7"/>
<path d="M13.1152 18.474C12.6481 18.474 12.269 18.095 12.269 17.6279V12.6919C12.269 12.2248 12.6481 11.8457 13.1152 11.8457C13.5823 11.8457 13.9613 12.2248 13.9613 12.6919V17.6279C13.9613 18.095 13.5823 18.474 13.1152 18.474Z" fill="#B4B9C7"/>
<path d="M21.1537 1.69328H0.846147C0.379074 1.69328 0 1.3142 0 0.847128C0 0.380053 0.379074 0.000976562 0.846147 0.000976562H21.1537C21.6207 0.000976562 21.9998 0.380053 21.9998 0.847128C21.9998 1.3142 21.6207 1.69328 21.1537 1.69328Z" fill="#B4B9C7"/>
<path d="M8.88503 21.9999C8.64261 21.9999 8.40188 21.8963 8.23477 21.6953C7.93565 21.3361 7.98388 20.8031 8.34307 20.5039L12.5738 16.9785C12.933 16.6789 13.4661 16.728 13.7652 17.0868C14.0643 17.446 14.0161 17.979 13.6569 18.2781L9.42614 21.8036C9.26791 21.9356 9.07584 21.9999 8.88503 21.9999Z" fill="#B4B9C7"/>
</svg>
