<svg width="53" height="50" viewBox="0 0 53 50" fill="none" xmlns="http://www.w3.org/2000/svg">
<g filter="url(#filter0_d_217_7581)">
<path d="M27.6899 11.9902L27.6899 18.0002L26.1899 18.0002L26.1899 11.9902C26.1899 11.5802 26.5299 11.2402 26.9399 11.2402C27.3499 11.2402 27.6899 11.5802 27.6899 11.9902Z" fill="#3E474F"/>
<path fill-rule="evenodd" clip-rule="evenodd" d="M36.14 17.9004C36.62 17.9004 37 18.2804 37 18.7604C37 24.6404 32.88 28.7604 26.99 28.7604C21.1 28.7604 16.99 24.6504 16.99 18.7604C16.99 18.2804 17.38 17.9004 17.85 17.9004L26.19 17.9004L26.19 21.5604L24.62 20.0004C24.33 19.7104 23.85 19.7104 23.56 20.0004C23.41 20.1504 23.34 20.3404 23.34 20.5304C23.34 20.7204 23.41 20.9104 23.56 21.0604L26.41 23.9004C26.7 24.2004 27.17 24.2004 27.46 23.9004L30.31 21.0604C30.6 20.7704 30.6 20.2904 30.31 20.0004C30.02 19.7104 29.54 19.7104 29.25 20.0004L27.69 21.5604L27.69 17.9004L36.14 17.9004Z" fill="#5ED5A8"/>
</g>
<defs>
<filter id="filter0_d_217_7581" x="0.990234" y="0.240234" width="52.0098" height="49.5205" filterUnits="userSpaceOnUse" color-interpolation-filters="sRGB">
<feFlood flood-opacity="0" result="BackgroundImageFix"/>
<feColorMatrix in="SourceAlpha" type="matrix" values="0 0 0 0 0 0 0 0 0 0 0 0 0 0 0 0 0 0 127 0" result="hardAlpha"/>
<feOffset dy="5"/>
<feGaussianBlur stdDeviation="8"/>
<feComposite in2="hardAlpha" operator="out"/>
<feColorMatrix type="matrix" values="0 0 0 0 0.368627 0 0 0 0 0.835294 0 0 0 0 0.658824 0 0 0 0.25 0"/>
<feBlend mode="normal" in2="BackgroundImageFix" result="effect1_dropShadow_217_7581"/>
<feBlend mode="normal" in="SourceGraphic" in2="effect1_dropShadow_217_7581" result="shape"/>
</filter>
</defs>
</svg>
