<svg width="24" height="24" viewBox="0 0 24 24" fill="none" xmlns="http://www.w3.org/2000/svg">
<path d="M12.6899 3.99023L12.6899 10.0002L11.1899 10.0002L11.1899 3.99023C11.1899 3.58023 11.5299 3.24023 11.9399 3.24023C12.3499 3.24023 12.6899 3.58023 12.6899 3.99023Z" fill="#3E474F"/>
<path fill-rule="evenodd" clip-rule="evenodd" d="M21.14 9.89941C21.62 9.89941 22 10.2794 22 10.7594C22 16.6394 17.88 20.7594 11.99 20.7594C6.1 20.7594 1.99 16.6494 1.99 10.7594C1.99 10.2794 2.38 9.89941 2.85 9.89941L11.1898 9.89941L11.1898 13.5596L9.61984 11.9996C9.32984 11.7096 8.84984 11.7096 8.55984 11.9996C8.40984 12.1496 8.33984 12.3396 8.33984 12.5296C8.33984 12.7196 8.40984 12.9096 8.55984 13.0596L11.4098 15.8996C11.6998 16.1996 12.1698 16.1996 12.4598 15.8996L15.3098 13.0596C15.5998 12.7696 15.5998 12.2896 15.3098 11.9996C15.0198 11.7096 14.5398 11.7096 14.2498 11.9996L12.6898 13.5596L12.6898 9.89941L21.14 9.89941Z" fill="#3E474F"/>
</svg>
