<svg width="20" height="18" viewBox="0 0 20 18" fill="none" xmlns="http://www.w3.org/2000/svg">
<path d="M9.82205 17.9268C7.35933 17.9268 4.90614 17.5524 2.56751 16.8037C1.69887 16.5298 1.04024 15.9363 0.753872 15.1876C0.467508 14.439 0.562963 13.5807 1.03069 12.832L2.24296 10.8963C2.51024 10.4672 2.74887 9.66373 2.74887 9.16156V7.24417C2.74887 3.50982 5.91796 0.478516 9.82205 0.478516C13.7261 0.478516 16.8952 3.50982 16.8952 7.24417V9.16156C16.8952 9.6546 17.1339 10.4672 17.4011 10.8963L18.6134 12.832C19.0621 13.5442 19.1384 14.3933 18.8425 15.1694C18.5466 15.9455 17.8975 16.539 17.0766 16.8037C14.738 17.5616 12.2848 17.9268 9.82205 17.9268ZM9.82205 1.85721C6.71024 1.85721 4.18069 4.27678 4.18069 7.2533V9.17069C4.18069 9.91026 3.87524 10.9785 3.47433 11.6085L2.26205 13.5533C2.01387 13.9459 1.9566 14.3659 2.09978 14.7311C2.24296 15.0963 2.56751 15.3703 3.02569 15.5163C7.4166 16.9133 12.2466 16.9133 16.6375 15.5163C17.048 15.3885 17.363 15.0963 17.5061 14.7129C17.6589 14.3294 17.6111 13.9094 17.3916 13.5533L16.1793 11.6176C15.7784 10.9876 15.473 9.91939 15.473 9.17982V7.26243C15.4634 4.27678 12.9339 1.85721 9.82205 1.85721Z" fill="#5ED5A8"/>
<path opacity="0.1" d="M13.6212 7.56428C13.6212 6.59567 13.219 5.66672 12.5029 4.98181C11.7869 4.29689 10.8157 3.91211 9.80305 3.91211C8.7904 3.91211 7.81923 4.29689 7.10318 4.98181C6.38714 5.66672 5.98486 6.59567 5.98486 7.56428L9.80305 7.56428H13.6212Z" fill="#5ED5A8"/>
<path d="M9.56441 17.379C8.61941 17.379 7.70304 17.0138 7.03486 16.3746C6.36668 15.7355 5.98486 14.859 5.98486 13.9551H7.41668C7.41668 14.4938 7.64577 15.0233 8.04668 15.4068C8.44759 15.7903 9.00123 16.0094 9.56441 16.0094C10.748 16.0094 11.7121 15.0873 11.7121 13.9551H13.144C13.144 15.8451 11.5403 17.379 9.56441 17.379Z" fill="#5ED5A8"/>
<ellipse cx="16.2481" cy="4.18113" rx="3.2481" ry="3.18113" fill="#DD4B4B"/>
</svg>
