<svg width="37" height="38" viewBox="0 0 37 38" fill="none" xmlns="http://www.w3.org/2000/svg">
<path d="M10 24H16C21 24 23 22 23 17V11C23 6 21 4 16 4H10C5 4 3 6 3 11V17C3 22 5 24 10 24Z" stroke="#3E474F" stroke-width="1.5" stroke-linecap="round" stroke-linejoin="round"/>
<path d="M9 21H17C19 21 20 20 20 18V10C20 8 19 7 17 7H9C7 7 6 8 6 10V18C6 20 7 21 9 21Z" stroke="#3E474F" stroke-width="1.5" stroke-linecap="round" stroke-linejoin="round"/>
<path d="M6 11.5H8.48C9.86 11.5 10.98 12.62 10.98 14C10.98 15.38 9.86 16.5 8.48 16.5H6" stroke="#3E474F" stroke-width="1.5" stroke-linecap="round" stroke-linejoin="round"/>
<g filter="url(#filter0_d_217_8595)">
<path d="M20 11.9902H17" stroke="#3E474F" stroke-width="1.5" stroke-linecap="round" stroke-linejoin="round"/>
</g>
<g filter="url(#filter1_d_217_8595)">
<path d="M20 16H17" stroke="#3E474F" stroke-width="1.5" stroke-linecap="round" stroke-linejoin="round"/>
</g>
<path d="M8.2002 14H8.3002" stroke="#3E474F" stroke-width="2" stroke-miterlimit="10" stroke-linecap="round" stroke-linejoin="round"/>
<defs>
<filter id="filter0_d_217_8595" x="0.25" y="0.240234" width="36.5" height="33.5" filterUnits="userSpaceOnUse" color-interpolation-filters="sRGB">
<feFlood flood-opacity="0" result="BackgroundImageFix"/>
<feColorMatrix in="SourceAlpha" type="matrix" values="0 0 0 0 0 0 0 0 0 0 0 0 0 0 0 0 0 0 127 0" result="hardAlpha"/>
<feOffset dy="5"/>
<feGaussianBlur stdDeviation="8"/>
<feComposite in2="hardAlpha" operator="out"/>
<feColorMatrix type="matrix" values="0 0 0 0 0.368627 0 0 0 0 0.835294 0 0 0 0 0.658824 0 0 0 0.25 0"/>
<feBlend mode="normal" in2="BackgroundImageFix" result="effect1_dropShadow_217_8595"/>
<feBlend mode="normal" in="SourceGraphic" in2="effect1_dropShadow_217_8595" result="shape"/>
</filter>
<filter id="filter1_d_217_8595" x="0.25" y="4.25" width="36.5" height="33.5" filterUnits="userSpaceOnUse" color-interpolation-filters="sRGB">
<feFlood flood-opacity="0" result="BackgroundImageFix"/>
<feColorMatrix in="SourceAlpha" type="matrix" values="0 0 0 0 0 0 0 0 0 0 0 0 0 0 0 0 0 0 127 0" result="hardAlpha"/>
<feOffset dy="5"/>
<feGaussianBlur stdDeviation="8"/>
<feComposite in2="hardAlpha" operator="out"/>
<feColorMatrix type="matrix" values="0 0 0 0 0.368627 0 0 0 0 0.835294 0 0 0 0 0.658824 0 0 0 0.25 0"/>
<feBlend mode="normal" in2="BackgroundImageFix" result="effect1_dropShadow_217_8595"/>
<feBlend mode="normal" in="SourceGraphic" in2="effect1_dropShadow_217_8595" result="shape"/>
</filter>
</defs>
</svg>
