<svg width="40" height="42" viewBox="0 0 40 42" fill="none" xmlns="http://www.w3.org/2000/svg">
<path d="M20.99 23.98C25.4028 23.98 28.98 20.4028 28.98 15.99C28.98 11.5772 25.4028 8 20.99 8C16.5772 8 13 11.5772 13 15.99C13 20.4028 16.5772 23.98 20.99 23.98Z" stroke="#3E474F" stroke-width="1.5" stroke-linecap="round" stroke-linejoin="round"/>
<g filter="url(#filter0_d_217_8690)">
<path d="M18.5552 13.7783H21.3374C21.9507 13.7783 22.4485 14.3383 22.4485 14.8894C22.4485 15.5028 21.9507 16.0005 21.3374 16.0005H18.5552V13.7783Z" stroke="#3E474F" stroke-width="1.5" stroke-miterlimit="10" stroke-linecap="round" stroke-linejoin="round"/>
<path d="M18.5552 16H21.7285C22.4307 16 22.9996 16.4978 22.9996 17.1111C22.9996 17.7244 22.4307 18.2222 21.7285 18.2222H18.5552V16Z" stroke="#3E474F" stroke-width="1.5" stroke-miterlimit="10" stroke-linecap="round" stroke-linejoin="round"/>
<path d="M20.1196 18.2227V19.3338" stroke="#3E474F" stroke-width="1.5" stroke-miterlimit="10" stroke-linecap="round" stroke-linejoin="round"/>
<path d="M20.1196 12.667V13.7781" stroke="#3E474F" stroke-width="1.5" stroke-miterlimit="10" stroke-linecap="round" stroke-linejoin="round"/>
<path d="M19.6132 13.7783H17.6665" stroke="#3E474F" stroke-width="1.5" stroke-miterlimit="10" stroke-linecap="round" stroke-linejoin="round"/>
<path d="M19.6132 18.2227H17.6665" stroke="#3E474F" stroke-width="1.5" stroke-miterlimit="10" stroke-linecap="round" stroke-linejoin="round"/>
</g>
<path d="M23.98 25.88C24.88 27.15 26.35 27.98 28.03 27.98C30.76 27.98 32.98 25.76 32.98 23.03C32.98 21.37 32.16 19.9 30.91 19" stroke="#3E474F" stroke-width="1.5" stroke-linecap="round" stroke-linejoin="round"/>
<defs>
<filter id="filter0_d_217_8690" x="0.916504" y="0.916992" width="38.833" height="40.167" filterUnits="userSpaceOnUse" color-interpolation-filters="sRGB">
<feFlood flood-opacity="0" result="BackgroundImageFix"/>
<feColorMatrix in="SourceAlpha" type="matrix" values="0 0 0 0 0 0 0 0 0 0 0 0 0 0 0 0 0 0 127 0" result="hardAlpha"/>
<feOffset dy="5"/>
<feGaussianBlur stdDeviation="8"/>
<feComposite in2="hardAlpha" operator="out"/>
<feColorMatrix type="matrix" values="0 0 0 0 0.368627 0 0 0 0 0.835294 0 0 0 0 0.658824 0 0 0 0.25 0"/>
<feBlend mode="normal" in2="BackgroundImageFix" result="effect1_dropShadow_217_8690"/>
<feBlend mode="normal" in="SourceGraphic" in2="effect1_dropShadow_217_8690" result="shape"/>
</filter>
</defs>
</svg>
