<svg width="24" height="24" viewBox="0 0 24 24" fill="none" xmlns="http://www.w3.org/2000/svg">
<path d="M12 2C9.38 2 7.25 4.13 7.25 6.75C7.25 9.32 9.26 11.4 11.88 11.49C11.96 11.48 12.04 11.48 12.1 11.49C12.12 11.49 12.13 11.49 12.15 11.49C12.16 11.49 12.16 11.49 12.17 11.49C14.73 11.4 16.74 9.32 16.75 6.75C16.75 4.13 14.62 2 12 2Z" fill="#3E474F"/>
<path fill-rule="evenodd" clip-rule="evenodd" d="M6.92947 14.1499C9.73947 12.2899 14.2895 12.2899 17.0795 14.1499C18.3395 14.9899 19.0295 16.1299 19.0395 17.3599C19.0395 18.5999 18.3395 19.7399 17.0795 20.5899C15.6795 21.5299 13.8395 21.9999 11.9995 21.9999C10.1595 21.9999 8.31947 21.5299 6.91947 20.5899C5.65947 19.7499 4.95947 18.6099 4.95947 17.3799C4.95947 16.1499 5.65947 14.9999 6.92947 14.1499ZM12.7498 16.6299H13.9998C14.4098 16.6299 14.7498 16.9699 14.7498 17.3799C14.7498 17.7899 14.4098 18.1299 13.9998 18.1299H12.7498V19.3799C12.7498 19.7899 12.4098 20.1299 11.9998 20.1299C11.5898 20.1299 11.2498 19.7899 11.2498 19.3799V18.1299H9.99984C9.58984 18.1299 9.24984 17.7899 9.24984 17.3799C9.24984 16.9699 9.58984 16.6299 9.99984 16.6299H11.2498V15.3799C11.2498 14.9699 11.5898 14.6299 11.9998 14.6299C12.4098 14.6299 12.7498 14.9699 12.7498 15.3799V16.6299Z" fill="#3E474F"/>
</svg>
