<svg width="48" height="52" viewBox="0 0 48 52" fill="none" xmlns="http://www.w3.org/2000/svg">
<g filter="url(#filter0_d_217_8471)">
<path d="M24 11C21.38 11 19.25 13.13 19.25 15.75C19.25 18.32 21.26 20.4 23.88 20.49C23.96 20.48 24.04 20.48 24.1 20.49C24.12 20.49 24.13 20.49 24.15 20.49C24.16 20.49 24.16 20.49 24.17 20.49C26.73 20.4 28.74 18.32 28.75 15.75C28.75 13.13 26.62 11 24 11Z" fill="#3E474F"/>
<path fill-rule="evenodd" clip-rule="evenodd" d="M18.9295 23.1499C21.7395 21.2899 26.2895 21.2899 29.0795 23.1499C30.3395 23.9899 31.0295 25.1299 31.0395 26.3599C31.0395 27.5999 30.3395 28.7399 29.0795 29.5899C27.6795 30.5299 25.8395 30.9999 23.9995 30.9999C22.1595 30.9999 20.3195 30.5299 18.9195 29.5899C17.6595 28.7499 16.9595 27.6099 16.9595 26.3799C16.9595 25.1499 17.6595 23.9999 18.9295 23.1499ZM24.7498 25.6299H25.9998C26.4098 25.6299 26.7498 25.9699 26.7498 26.3799C26.7498 26.7899 26.4098 27.1299 25.9998 27.1299H24.7498V28.3799C24.7498 28.7899 24.4098 29.1299 23.9998 29.1299C23.5898 29.1299 23.2498 28.7899 23.2498 28.3799V27.1299H21.9998C21.5898 27.1299 21.2498 26.7899 21.2498 26.3799C21.2498 25.9699 21.5898 25.6299 21.9998 25.6299H23.2498V24.3799C23.2498 23.9699 23.5898 23.6299 23.9998 23.6299C24.4098 23.6299 24.7498 23.9699 24.7498 24.3799V25.6299Z" fill="#5ED5A8"/>
</g>
<defs>
<filter id="filter0_d_217_8471" x="0.959473" y="0" width="46.0801" height="52" filterUnits="userSpaceOnUse" color-interpolation-filters="sRGB">
<feFlood flood-opacity="0" result="BackgroundImageFix"/>
<feColorMatrix in="SourceAlpha" type="matrix" values="0 0 0 0 0 0 0 0 0 0 0 0 0 0 0 0 0 0 127 0" result="hardAlpha"/>
<feOffset dy="5"/>
<feGaussianBlur stdDeviation="8"/>
<feComposite in2="hardAlpha" operator="out"/>
<feColorMatrix type="matrix" values="0 0 0 0 0.368627 0 0 0 0 0.835294 0 0 0 0 0.658824 0 0 0 0.25 0"/>
<feBlend mode="normal" in2="BackgroundImageFix" result="effect1_dropShadow_217_8471"/>
<feBlend mode="normal" in="SourceGraphic" in2="effect1_dropShadow_217_8471" result="shape"/>
</filter>
</defs>
</svg>
